<svg id="Layer_1" data-name="Layer 1" xmlns="http://www.w3.org/2000/svg" viewBox="0 0 1000 1000"><defs><style>.cls-1{fill:#fff;}.cls-2{fill:#189cd9;}</style></defs><path class="cls-1" d="M572.54,577.34v25.14H584v8.25H564V577.34Z"/><path class="cls-1" d="M619.78,606.44A17.49,17.49,0,0,1,589.87,594a16.72,16.72,0,0,1,5.06-12.36,17.78,17.78,0,0,1,24.85,0A16.61,16.61,0,0,1,624.89,594,16.86,16.86,0,0,1,619.78,606.44Zm-18.84-5.87A9,9,0,0,0,616.4,594a8.58,8.58,0,0,0-2.58-6.49,9.33,9.33,0,0,0-12.88,0,8.58,8.58,0,0,0-2.58,6.49A8.84,8.84,0,0,0,600.94,600.57Z"/><path class="cls-1" d="M650.1,591.6h16.84V595a16,16,0,0,1-4.63,11.93,16.32,16.32,0,0,1-11.92,4.53,17.62,17.62,0,0,1-12.88-5,16.79,16.79,0,0,1-5-12.36,17,17,0,0,1,5-12.4,16.76,16.76,0,0,1,12.4-5.06,17.79,17.79,0,0,1,8.54,2.1,16.06,16.06,0,0,1,6.11,5.58l-7.26,4.15a7,7,0,0,0-2.95-2.52,9.76,9.76,0,0,0-4.34-1,8.67,8.67,0,0,0-6.49,2.58,9.84,9.84,0,0,0,0,13.12,9.25,9.25,0,0,0,7.06,2.67q5.82,0,7.68-4.39H650.1Z"/><path class="cls-1" d="M675.91,610.73V577.34h8.54v33.39Z"/><path class="cls-1" d="M707,611.45a16.07,16.07,0,0,1-8.71-2.2,11.77,11.77,0,0,1-4.94-6.1l7.3-4.25a6.63,6.63,0,0,0,6.58,4.44q3.91,0,3.92-2.24c0-1-.75-1.75-2.25-2.39-.5-.19-1.9-.62-4.19-1.29a17.08,17.08,0,0,1-7.4-3.86,8.82,8.82,0,0,1-2.53-6.58,9.44,9.44,0,0,1,3.29-7.49,12.44,12.44,0,0,1,8.31-2.87,14,14,0,0,1,7.44,2,12.77,12.77,0,0,1,5,5.66l-7.16,4.19q-1.57-3.72-5.2-3.72a3.8,3.8,0,0,0-2.29.6,1.89,1.89,0,0,0-.81,1.6,2.21,2.21,0,0,0,1.17,1.86,19.36,19.36,0,0,0,4.56,1.76c1.68.51,3,1,3.91,1.34a19,19,0,0,1,3.24,1.81c2.32,1.53,3.49,4,3.49,7.3a9.26,9.26,0,0,1-3.49,7.68Q712.76,611.45,707,611.45Z"/><path class="cls-1" d="M727.28,577.34h25.05v8.25h-8.26v25.14h-8.54V585.59h-8.25Z"/><path class="cls-1" d="M762,610.73V577.34h8.54v33.39Z"/><path class="cls-1" d="M797.11,611.45a17.62,17.62,0,0,1-12.5-29.82,16.78,16.78,0,0,1,12.5-5,17,17,0,0,1,8.4,2.15,16.1,16.1,0,0,1,6.06,5.77l-7.4,4.25a6.77,6.77,0,0,0-2.84-2.79,8.59,8.59,0,0,0-4.22-1,8.78,8.78,0,0,0-6.48,2.53,10,10,0,0,0,0,13.12,8.77,8.77,0,0,0,6.48,2.48,8.59,8.59,0,0,0,4.22-1,6.69,6.69,0,0,0,2.84-2.83l7.4,4.29a15.88,15.88,0,0,1-6,5.8A17.15,17.15,0,0,1,797.11,611.45Z"/><path class="cls-1" d="M831.61,611.45a16.07,16.07,0,0,1-8.71-2.2,11.77,11.77,0,0,1-4.94-6.1l7.3-4.25a6.64,6.64,0,0,0,6.59,4.44c2.6,0,3.91-.75,3.91-2.24,0-1-.75-1.75-2.24-2.39q-.76-.29-4.2-1.29a17.08,17.08,0,0,1-7.4-3.86,8.82,8.82,0,0,1-2.53-6.58,9.42,9.42,0,0,1,3.3-7.49,12.4,12.4,0,0,1,8.3-2.87,14,14,0,0,1,7.44,2,12.77,12.77,0,0,1,5,5.66l-7.15,4.19c-1-2.48-2.79-3.72-5.2-3.72a3.78,3.78,0,0,0-2.29.6,1.86,1.86,0,0,0-.81,1.6,2.19,2.19,0,0,0,1.16,1.86,19.36,19.36,0,0,0,4.56,1.76c1.69.51,3,1,3.91,1.34a19,19,0,0,1,3.24,1.81q3.5,2.29,3.49,7.3a9.23,9.23,0,0,1-3.49,7.68Q837.33,611.45,831.61,611.45Z"/><path class="cls-1" d="M221.46,401.09H273.1L242.47,554.24H190.83Z"/><path class="cls-1" d="M419.39,487.41a30.38,30.38,0,0,1,5.36,18q0,24.29-20,36.53t-51.52,12.25H264.82l30.63-153.15h81.17q26.91,0,40.91,9.52t14,27a37,37,0,0,1-7.22,22.65q-7.21,9.74-20.12,15.2A36,36,0,0,1,419.39,487.41Zm-50.65,27.12q4.81-3.6,4.82-10.39A8.7,8.7,0,0,0,370,496.7a15.06,15.06,0,0,0-9.08-2.62H327.61l-4.81,24.07h33.25Q363.93,518.15,368.74,514.53ZM339,437.2,334.39,460h26.26q17.06,0,17.06-13.35a8,8,0,0,0-3.5-7q-3.49-2.4-10.06-2.4Z"/><path class="cls-1" d="M702.76,401.09,619.35,554.24H564l-8.75-80.73-42,80.73H457.89L439.51,401.09h51l9.84,87.3,45.51-87.3h47.47l8.76,88.61L652,401.09Z"/><path class="cls-1" d="M773.13,527.56H714.72L702,554.24H647.55l82.51-153.15h50.75L819.38,516l-28.93,38.21h-9.66Zm-10.88-37.2L751,451.2l-18.68,39.16Z"/><polygon class="cls-1" points="906.4 401.1 872.01 446.52 889.92 490.36 953.95 401.1 906.4 401.1"/><polygon class="cls-2" points="853.71 401.09 805.65 401.09 838.82 490.36 790.45 554.25 844.11 554.25 889.92 490.36 853.71 401.09"/><path class="cls-1" d="M113.8,518.21c7.15.19,17.83-3.11,17.09-11.86-.49-5.87-10.55-9.87-19.49-13.62-17.71-7.43-36-19.34-35.63-41.29.64-60.26,89.06-70.34,125.1-32.8l-33,28.21c-7.48-7.24-22-13.44-32.59-7-5.6,4-5.46,10.13,1.71,13.72,8.71,5,20.71,9.4,30.08,15.07,28,15.75,23.7,54.41,1.33,73.6C152.76,557.63,118.78,562.37,94.3,556c-16.78-4.22-31.16-12.27-42.25-23.56L85,505.28C85.81,506.28,100.51,517.84,113.8,518.21Z"/></svg>